HIERARCHY
ROOT Hips
{
	OFFSET -0.001795 -0.223333 0.028219
	CHANNELS 6 Xposition Yposition Zposition Zrotation Yrotation Xrotation 
	JOINT LeftUpLeg
	{
		OFFSET 0.069520 -0.091406 -0.006815
		CHANNELS 3 Zrotation Yrotation Xrotation
		JOINT LeftLeg
		{
			OFFSET 0.034277 -0.375199 -0.004496
			CHANNELS 3 Zrotation Yrotation Xrotation
			JOINT LeftFoot
			{
				OFFSET -0.013596 -0.397961 -0.043693
				CHANNELS 3 Zrotation Yrotation Xrotation
				JOINT LeftToe
				{
					OFFSET 0.026358 -0.055791 0.119288
					CHANNELS 3 Zrotation Yrotation Xrotation
					End Site
					{
						OFFSET 0.000000 0.000000 0.000000
					}
				}
			}
		}
	}
	JOINT RightUpLeg
	{
		OFFSET -0.067670 -0.090522 -0.004320
		CHANNELS 3 Zrotation Yrotation Xrotation
		JOINT RightLeg
		{
			OFFSET -0.038290 -0.382569 -0.008850
			CHANNELS 3 Zrotation Yrotation Xrotation
			JOINT RightFoot
			{
				OFFSET 0.015774 -0.398415 -0.042312
				CHANNELS 3 Zrotation Yrotation Xrotation
				JOINT RightToe
				{
					OFFSET -0.025372 -0.048144 0.123348
					CHANNELS 3 Zrotation Yrotation Xrotation
					End Site
					{
						OFFSET 0.000000 0.000000 0.000000
					}
				}
			}
		}
	}
	JOINT Spine
	{
		OFFSET -0.002533 0.108963 -0.026696
		CHANNELS 3 Zrotation Yrotation Xrotation
		JOINT Spine1
		{
			OFFSET 0.005487 0.135180 0.001092
			CHANNELS 3 Zrotation Yrotation Xrotation
			JOINT Spine2
			{
				OFFSET 0.001457 0.052922 0.025425
				CHANNELS 3 Zrotation Yrotation Xrotation
				JOINT Neck
				{
					OFFSET -0.002778 0.213870 -0.042857
					CHANNELS 3 Zrotation Yrotation Xrotation
					JOINT Head
					{
						OFFSET 0.005152 0.064970 0.051349
						CHANNELS 3 Zrotation Yrotation Xrotation
						End Site
						{
							OFFSET 0.000000 0.000000 0.000000
						}
					}
				}
				JOINT LeftShoulder
				{
					OFFSET 0.078845 0.121749 -0.034090
					CHANNELS 3 Zrotation Yrotation Xrotation
					JOINT LeftArm
					{
						OFFSET 0.090977 0.030469 -0.008868
						CHANNELS 3 Zrotation Yrotation Xrotation
						JOINT LeftForeArm
						{
							OFFSET 0.259612 -0.012772 -0.027456
							CHANNELS 3 Zrotation Yrotation Xrotation
							JOINT LeftHand
							{
								OFFSET 0.249234 0.008986 -0.001171
								CHANNELS 3 Zrotation Yrotation Xrotation
								End Site
								{
									OFFSET 0.000000 0.000000 0.000000
								}
							}
						}
					}
				}
				JOINT RightShoulder
				{
					OFFSET -0.081759 0.118833 -0.038615
					CHANNELS 3 Zrotation Yrotation Xrotation
					JOINT RightArm
					{
						OFFSET -0.096012 0.032551 -0.009143
						CHANNELS 3 Zrotation Yrotation Xrotation
						JOINT RightForeArm
						{
							OFFSET -0.253742 -0.013329 -0.021401
							CHANNELS 3 Zrotation Yrotation Xrotation
							JOINT RightHand
							{
								OFFSET -0.255298 0.007772 -0.005559
								CHANNELS 3 Zrotation Yrotation Xrotation
								End Site
								{
									OFFSET 0.000000 0.000000 0.000000
								}
							}
						}
					}
				}
			}
		}
	}
}
MOTION
Frames: 14
Frame Time: 0.050000
-0.032653 0.953971 0.011884 -1.721298 38.289569 2.612379 7.744166 -0.970340 3.946485 -4.755952 -0.448547 -9.879132 10.182495 21.920467 22.082108 0.000000 0.000000 0.000000 -5.869477 -0.533190 0.535557 4.681229 -1.024901 -9.164719 -3.099474 -5.774535 20.398038 0.000000 0.000000 0.000000 4.933223 -1.610531 12.256906 -6.147372 1.885526 -28.319618 -1.455022 5.602244 28.418458 11.346095 -0.954587 -23.586813 0.000000 0.000000 0.000000 -10.088701 -8.019301 -1.882127 -56.057681 -8.647348 -5.716143 -2.609808 -24.726569 0.004135 0.000000 0.000000 0.000000 22.204060 -6.932936 2.553280 59.717544 28.021529 6.455302 -5.111729 34.476304 2.471089 0.000000 0.000000 0.000000 
-0.033349 0.953696 0.011619 -1.640484 39.228304 2.416866 7.806467 -0.997724 3.856862 -4.789574 -0.457824 -9.633107 9.671113 21.396801 21.608077 0.000000 0.000000 0.000000 -5.920441 -0.591448 0.942929 4.764382 -1.050956 -9.214725 -3.516479 -6.349192 20.389407 0.000000 0.000000 0.000000 4.805684 -1.684881 12.762116 -6.186924 1.889323 -28.353899 -1.222065 5.563243 28.331042 11.379279 -0.883821 -23.658272 0.000000 0.000000 0.000000 -10.228000 -8.557788 -1.818435 -55.813740 -8.534987 -5.676538 -2.533406 -24.934186 -0.048315 0.000000 0.000000 0.000000 22.521564 -6.865208 2.818148 59.784326 27.846262 6.296693 -6.724138 33.923977 2.010178 0.000000 0.000000 0.000000 
-0.033965 0.953594 0.011328 -1.417672 39.953156 2.352771 7.872399 -1.018433 3.718066 -5.085708 -0.477582 -9.310184 9.259436 20.979631 21.277673 0.000000 0.000000 0.000000 -6.105340 -0.639595 1.069790 4.841582 -1.059550 -8.902073 -3.862106 -6.838576 20.272463 0.000000 0.000000 0.000000 4.678772 -1.735981 13.136307 -6.202790 1.899723 -28.329083 -1.165647 5.560333 28.186637 11.455210 -0.852784 -23.725065 0.000000 0.000000 0.000000 -10.100737 -8.972987 -1.690509 -55.688882 -8.642461 -5.597171 -2.707917 -25.169106 -0.049386 0.000000 0.000000 0.000000 22.906497 -6.870380 3.034601 59.647366 28.102426 6.298263 -8.346514 33.873295 1.646610 0.000000 0.000000 0.000000 
-0.034441 0.953519 0.011076 -1.315120 40.754840 2.243731 8.021436 -1.052782 3.528538 -5.346273 -0.494179 -8.968121 8.823796 20.532926 20.919959 0.000000 0.000000 0.000000 -6.054785 -0.677079 1.347705 4.690140 -1.048639 -8.884962 -4.247018 -7.374482 20.296277 0.000000 0.000000 0.000000 4.677340 -1.754435 13.208910 -6.121214 1.919689 -28.154019 -1.167879 5.497882 28.235536 11.467417 -0.841748 -23.536305 0.000000 0.000000 0.000000 -10.195224 -9.595223 -1.558637 -55.315072 -8.530623 -5.550290 -2.747236 -25.303391 -0.066797 0.000000 0.000000 0.000000 23.547797 -6.617998 3.516526 59.093114 28.729783 6.283627 -11.031251 34.247047 1.072600 0.000000 0.000000 0.000000 
-0.034896 0.953577 0.010873 -1.219148 41.147963 2.189081 8.043656 -1.059446 3.416660 -5.439853 -0.493515 -8.730162 8.594054 20.300979 20.757564 0.000000 0.000000 0.000000 -6.145220 -0.709809 1.504352 4.767509 -1.064997 -8.870805 -4.410334 -7.602290 20.331237 0.000000 0.000000 0.000000 4.622979 -1.767908 13.319778 -6.191442 1.910979 -28.307181 -1.084006 5.699948 28.370073 11.552193 -0.842844 -23.459157 0.000000 0.000000 0.000000 -10.258811 -9.826108 -1.587172 -55.137293 -8.462168 -5.522982 -2.902819 -25.261392 -0.063512 0.000000 0.000000 0.000000 23.949522 -6.568290 3.791899 58.688486 29.495477 6.468557 -12.894198 35.014754 0.728352 0.000000 0.000000 0.000000 
-0.035489 0.953688 0.010689 -1.197059 41.254265 2.013117 8.192874 -1.088325 3.450387 -5.683354 -0.500705 -8.524873 8.536045 20.238007 20.725733 0.000000 0.000000 0.000000 -6.001872 -0.717239 1.712410 4.525010 -1.033408 -8.904964 -4.471034 -7.685480 20.346205 0.000000 0.000000 0.000000 4.548537 -1.747504 13.287574 -6.058488 1.910229 -28.205999 -1.072122 5.893239 28.574631 11.517620 -0.812067 -23.306626 0.000000 0.000000 0.000000 -10.350995 -9.865823 -1.662459 -54.831823 -8.237103 -5.555193 -3.256555 -25.393663 -0.008115 0.000000 0.000000 0.000000 24.253835 -6.302084 4.146404 58.636359 30.327217 6.826818 -14.819121 36.361536 0.369631 0.000000 0.000000 0.000000 
-0.036306 0.953787 0.010448 -1.165018 41.444500 1.953188 8.331199 -1.119635 3.505872 -5.887860 -0.533043 -8.617803 8.416239 20.132448 20.758342 0.000000 0.000000 0.000000 -5.958420 -0.727853 1.828051 4.472479 -1.031639 -8.982599 -4.554141 -7.797771 20.403928 0.000000 0.000000 0.000000 4.520653 -1.728419 13.209978 -6.039848 1.940432 -27.996191 -1.109120 6.047925 28.621346 11.836840 -0.968996 -23.356587 0.000000 0.000000 0.000000 -10.249082 -9.937595 -1.644902 -54.838239 -8.046534 -5.662905 -3.612796 -25.451576 0.051140 0.000000 0.000000 0.000000 24.668413 -6.009923 4.555851 58.585597 31.449750 7.328477 -15.724510 37.432624 0.198647 0.000000 0.000000 0.000000 
-0.037281 0.953987 0.010123 -1.201839 41.471792 1.779330 8.364684 -1.128358 3.588590 -5.832836 -0.525321 -8.587146 8.377544 20.101138 20.800859 0.000000 0.000000 0.000000 -5.785699 -0.713882 1.821395 4.276467 -0.995852 -8.781550 -4.596204 -7.862130 20.378936 0.000000 0.000000 0.000000 4.574601 -1.728221 13.173545 -6.182362 1.973131 -27.882953 -1.029558 6.201329 28.641149 11.975323 -1.092486 -23.139396 0.000000 0.000000 0.000000 -10.155080 -10.015332 -1.602845 -54.796242 -7.621353 -5.860204 -4.167349 -25.656450 0.158377 0.000000 0.000000 0.000000 24.824936 -5.838472 4.759359 59.166596 31.893947 7.753291 -16.478837 39.113063 0.108466 0.000000 0.000000 0.000000 
-0.038333 0.954027 0.009791 -1.304665 41.461903 1.763115 8.424718 -1.142064 3.634617 -5.720641 -0.541115 -8.871655 8.373310 20.116819 20.910574 0.000000 0.000000 0.000000 -5.637932 -0.701357 1.858121 4.239498 -1.002467 -9.062542 -4.584113 -7.828277 20.505705 0.000000 0.000000 0.000000 4.513768 -1.699895 13.078138 -6.099789 1.956413 -27.961701 -0.975485 6.384118 28.674622 12.062903 -1.159088 -23.000764 0.000000 0.000000 0.000000 -9.992954 -9.911051 -1.602958 -54.722152 -7.281742 -6.058332 -4.924156 -25.894333 0.313386 0.000000 0.000000 0.000000 24.981042 -5.883625 4.811879 59.555136 31.702517 7.757650 -15.481930 41.282354 0.525478 0.000000 0.000000 0.000000 
-0.039326 0.953995 0.009527 -1.329944 41.383539 1.890550 8.460058 -1.145032 3.601697 -5.683418 -0.562144 -9.163003 8.404878 20.174647 21.051307 0.000000 0.000000 0.000000 -5.592579 -0.685304 1.776110 4.266945 -1.016278 -9.319693 -4.541348 -7.762201 20.589547 0.000000 0.000000 0.000000 4.559507 -1.665351 12.841010 -6.171537 1.972388 -27.879575 -0.926239 6.492336 28.617102 11.947411 -1.083144 -22.963189 0.000000 0.000000 0.000000 -9.783163 -9.661456 -1.621154 -54.698247 -6.907267 -6.273284 -5.838080 -26.648548 0.495477 0.000000 0.000000 0.000000 24.948568 -6.103466 4.643426 59.979657 31.137588 7.622242 -13.482101 43.074467 1.306013 0.000000 0.000000 0.000000 
-0.040231 0.953875 0.009302 -1.215194 41.393268 1.909897 8.405774 -1.142511 3.736784 -5.689234 -0.583564 -9.381956 8.376986 20.156224 21.117563 0.000000 0.000000 0.000000 -5.743671 -0.707289 1.860389 4.432231 -1.044826 -9.440180 -4.513619 -7.733505 20.564874 0.000000 0.000000 0.000000 4.433229 -1.655194 12.901070 -6.148555 1.974081 -27.858763 -0.951815 6.681630 28.532708 11.828088 -1.023919 -22.786854 0.000000 0.000000 0.000000 -9.695702 -9.612278 -1.637133 -54.427519 -6.512977 -6.392555 -6.776583 -27.986776 0.668957 0.000000 0.000000 0.000000 24.865096 -6.226582 4.563460 60.260059 30.122082 7.172927 -11.273662 45.104936 2.291339 0.000000 0.000000 0.000000 
-0.041033 0.953666 0.009172 -1.135650 41.421405 1.896815 8.282599 -1.128124 3.886123 -5.523681 -0.587369 -9.594387 8.341699 20.122824 21.133932 0.000000 0.000000 0.000000 -5.900496 -0.736934 2.035390 4.661773 -1.087484 -9.679665 -4.474389 -7.689986 20.564214 0.000000 0.000000 0.000000 4.434913 -1.660274 12.927368 -6.352640 2.012061 -27.748957 -0.873945 6.613019 28.532035 11.675145 -0.926517 -22.815762 0.000000 0.000000 0.000000 -9.687165 -9.494686 -1.661907 -54.331050 -6.620906 -6.336072 -7.531110 -28.754302 0.848083 0.000000 0.000000 0.000000 24.673885 -6.240643 4.465507 60.391658 29.613970 6.978209 -9.230444 46.232926 3.172317 0.000000 0.000000 0.000000 
-0.041754 0.953537 0.009118 -0.874630 41.527596 2.057008 8.200245 -1.116506 3.924940 -5.676896 -0.618826 -9.736049 8.246443 20.045888 21.178191 0.000000 0.000000 0.000000 -6.107444 -0.775443 2.253932 4.724453 -1.114865 -10.067588 -4.480742 -7.706187 20.607554 0.000000 0.000000 0.000000 4.353069 -1.635473 12.859116 -6.402116 2.027810 -27.665929 -0.981073 6.766683 28.476635 11.635334 -0.888974 -22.732216 0.000000 0.000000 0.000000 -9.609414 -9.596739 -1.637863 -54.151098 -6.571738 -6.305197 -7.931014 -29.977039 0.904026 0.000000 0.000000 0.000000 24.587436 -6.228719 4.504419 60.164479 29.385118 6.804049 -8.384337 46.717587 3.557461 0.000000 0.000000 0.000000 
-0.042333 0.953511 0.009094 -0.720704 41.408178 2.203143 8.063672 -1.088240 3.937403 -5.626815 -0.619895 -9.849132 8.275251 20.093302 21.280521 0.000000 0.000000 0.000000 -6.379825 -0.802455 2.330426 5.030433 -1.167382 -10.359811 -4.359443 -7.544265 20.663788 0.000000 0.000000 0.000000 4.349575 -1.648694 12.942008 -6.482041 2.011093 -27.864670 -0.892522 7.125219 28.493644 11.507774 -0.848179 -22.397276 0.000000 0.000000 0.000000 -9.799133 -9.742619 -1.706991 -54.111154 -6.739583 -6.176657 -8.327034 -30.615755 0.978749 0.000000 0.000000 0.000000 24.628772 -5.971738 4.760903 59.513490 29.912870 6.872808 -8.450780 46.803026 3.489103 0.000000 0.000000 0.000000 
